<svg width="122" height="44" viewBox="0 0 122 44" fill="none" xmlns="http://www.w3.org/2000/svg">
<path d="M47.68 0.575996C48.2773 0.575996 48.7893 0.810664 49.216 1.28C49.6853 1.70667 49.92 2.24 49.92 2.88C49.92 3.52 49.6853 4.07467 49.216 4.544C48.7893 4.97066 48.2773 5.184 47.68 5.184H25.28L21.568 22.016C22.7627 21.888 23.8507 21.8027 24.832 21.76C25.8133 21.6747 26.752 21.6107 27.648 21.568C28.544 21.5253 29.4187 21.5253 30.272 21.568C31.1253 21.568 32.0213 21.5893 32.96 21.632C33.6 21.7173 34.1333 21.9947 34.56 22.464C34.9867 22.9333 35.1573 23.488 35.072 24.128C35.0293 24.7253 34.7733 25.2373 34.304 25.664C33.8347 26.0907 33.28 26.2827 32.64 26.24C31.5733 26.1547 30.5493 26.112 29.568 26.112C28.6293 26.112 27.6693 26.1333 26.688 26.176C25.7493 26.2187 24.768 26.304 23.744 26.432C22.72 26.5173 21.632 26.624 20.48 26.752L17.088 41.728C17.0027 42.2827 16.7467 42.7093 16.32 43.008C15.8933 43.3493 15.4027 43.52 14.848 43.52C14.6347 43.52 14.4853 43.4987 14.4 43.456C13.76 43.328 13.2693 42.9867 12.928 42.432C12.5867 41.92 12.48 41.3653 12.608 40.768L15.616 27.456C14.9333 27.5413 14.272 27.648 13.632 27.776C13.0347 27.904 12.4373 28.0107 11.84 28.096C11.712 28.1387 11.5627 28.16 11.392 28.16C10.8373 28.16 10.3467 27.9893 9.92 27.648C9.49333 27.3067 9.23733 26.8587 9.152 26.304C9.024 25.7067 9.13067 25.152 9.472 24.64C9.81333 24.0853 10.304 23.744 10.944 23.616C12.864 23.232 14.784 22.912 16.704 22.656L20.608 5.184C15.744 5.312 11.9467 5.93067 9.216 7.04C6.48533 8.10667 5.01333 9.6 4.8 11.52C4.71467 12.2027 4.736 12.9067 4.864 13.632C4.992 14.3573 5.376 14.8693 6.016 15.168C6.48533 15.3813 6.976 15.4453 7.488 15.36C8.04267 15.232 8.448 15.04 8.704 14.784C9.13067 14.3147 9.64267 14.08 10.24 14.08C10.88 14.0373 11.4347 14.2293 11.904 14.656C12.3733 15.1253 12.608 15.68 12.608 16.32C12.6507 16.9173 12.4587 17.4507 12.032 17.92C11.4347 18.56 10.688 19.072 9.792 19.456C8.896 19.7973 7.97867 19.968 7.04 19.968C6.10133 19.968 5.09867 19.7547 4.032 19.328C3.69067 19.1573 3.264 18.9013 2.752 18.56C2.28267 18.176 1.83467 17.664 1.408 17.024C0.981333 16.3413 0.64 15.5093 0.384 14.528C0.128 13.5467 0.0853333 12.352 0.256 10.944C0.384 9.74933 0.810667 8.55466 1.536 7.36C2.26133 6.12266 3.456 5.01333 5.12 4.032C6.784 3.008 9.00267 2.176 11.776 1.536C14.592 0.895997 18.1547 0.575996 22.464 0.575996H23.488H47.68ZM41.636 38.528C40.3987 37.7173 39.4387 36.6933 38.756 35.456C38.116 34.2187 37.7107 32.896 37.54 31.488C37.3267 30.0373 37.3267 28.5653 37.54 27.072C37.7533 25.536 38.116 24.1067 38.628 22.784C39.7373 19.968 41.2307 17.8347 43.108 16.384C44.9853 14.8907 46.9907 14.3147 49.124 14.656C49.252 14.656 49.444 14.6987 49.7 14.784C50.5533 14.656 51.3427 14.6133 52.068 14.656C53.604 14.784 54.9053 15.3387 55.972 16.32C57.0813 17.3013 57.8067 18.6027 58.148 20.224C58.4467 21.4613 58.468 22.9333 58.212 24.64C57.9987 26.304 57.572 27.9893 56.932 29.696C56.292 31.4027 55.4387 33.024 54.372 34.56C53.348 36.0533 52.1747 37.2693 50.852 38.208C49.3587 39.3173 47.7587 39.872 46.052 39.872C44.516 39.872 43.044 39.424 41.636 38.528ZM42.916 24.384C42.5747 25.3227 42.3187 26.304 42.148 27.328C41.9773 28.352 41.9133 29.3333 41.956 30.272C42.0413 31.2107 42.2547 32.064 42.596 32.832C42.9373 33.6 43.4493 34.1973 44.132 34.624C45.4973 35.5627 46.8627 35.52 48.228 34.496C49.1667 33.8133 50.02 32.896 50.788 31.744C51.556 30.5493 52.1747 29.312 52.644 28.032C53.156 26.7093 53.4973 25.4507 53.668 24.256C53.8813 23.0187 53.9027 22.016 53.732 21.248C53.5187 20.3947 53.1987 19.8613 52.772 19.648C52.388 19.392 52.0253 19.2427 51.684 19.2C50.9587 19.1147 50.276 19.264 49.636 19.648C49.0387 19.9893 48.6973 20.288 48.612 20.544C48.356 21.1413 47.9293 21.568 47.332 21.824C46.7773 22.0373 46.2013 22.0373 45.604 21.824C45.22 21.6533 44.9213 21.4187 44.708 21.12C43.9827 22.144 43.3853 23.232 42.916 24.384ZM64.261 38.528C63.0237 37.7173 62.0637 36.6933 61.381 35.456C60.741 34.2187 60.3357 32.896 60.165 31.488C59.9517 30.0373 59.9517 28.5653 60.165 27.072C60.3783 25.536 60.741 24.1067 61.253 22.784C62.3623 19.968 63.8557 17.8347 65.733 16.384C67.6103 14.8907 69.6157 14.3147 71.749 14.656C71.877 14.656 72.069 14.6987 72.325 14.784C73.1783 14.656 73.9677 14.6133 74.693 14.656C76.229 14.784 77.5303 15.3387 78.597 16.32C79.7063 17.3013 80.4317 18.6027 80.773 20.224C81.0717 21.4613 81.093 22.9333 80.837 24.64C80.6237 26.304 80.197 27.9893 79.557 29.696C78.917 31.4027 78.0637 33.024 76.997 34.56C75.973 36.0533 74.7997 37.2693 73.477 38.208C71.9837 39.3173 70.3837 39.872 68.677 39.872C67.141 39.872 65.669 39.424 64.261 38.528ZM65.541 24.384C65.1997 25.3227 64.9437 26.304 64.773 27.328C64.6023 28.352 64.5383 29.3333 64.581 30.272C64.6663 31.2107 64.8797 32.064 65.221 32.832C65.5623 33.6 66.0743 34.1973 66.757 34.624C68.1223 35.5627 69.4877 35.52 70.853 34.496C71.7917 33.8133 72.645 32.896 73.413 31.744C74.181 30.5493 74.7997 29.312 75.269 28.032C75.781 26.7093 76.1223 25.4507 76.293 24.256C76.5063 23.0187 76.5277 22.016 76.357 21.248C76.1437 20.3947 75.8237 19.8613 75.397 19.648C75.013 19.392 74.6503 19.2427 74.309 19.2C73.5837 19.1147 72.901 19.264 72.261 19.648C71.6637 19.9893 71.3223 20.288 71.237 20.544C70.981 21.1413 70.5543 21.568 69.957 21.824C69.4023 22.0373 68.8263 22.0373 68.229 21.824C67.845 21.6533 67.5463 21.4187 67.333 21.12C66.6077 22.144 66.0103 23.232 65.541 24.384ZM87.334 40.832C86.1393 40.832 85.1793 40.5973 84.454 40.128C83.7713 39.6587 83.2593 39.2107 82.918 38.784C82.1927 37.888 81.7447 36.8 81.574 35.52C81.3607 34.1973 81.3393 32.8747 81.51 31.552C81.638 30.1867 81.894 28.9067 82.278 27.712C82.6193 26.4747 82.982 25.4933 83.366 24.768C83.7073 24.128 84.1767 23.3387 84.774 22.4C85.3713 21.4613 86.054 20.544 86.822 19.648C87.6327 18.7093 88.5287 17.92 89.51 17.28C90.4913 16.5973 91.5153 16.2347 92.582 16.192C92.838 16.192 93.1793 16.2133 93.606 16.256C94.0327 16.256 94.4807 16.2987 94.95 16.384C95.462 16.4693 95.9313 16.5973 96.358 16.768C96.8273 16.9387 97.2327 17.152 97.574 17.408C97.9153 15.872 98.278 14.3573 98.662 12.864C99.046 11.328 99.4513 9.81333 99.878 8.32L101.03 3.904C101.201 3.30667 101.542 2.83733 102.054 2.496C102.609 2.15466 103.185 2.06933 103.782 2.24C104.422 2.41066 104.891 2.77333 105.19 3.328C105.531 3.84 105.617 4.416 105.446 5.056L104.294 9.472C103.398 12.928 102.545 16.4053 101.734 19.904C100.923 23.36 100.369 26.816 100.07 30.272C100.07 30.4853 100.049 30.72 100.006 30.976C99.9633 31.232 99.942 31.5307 99.942 31.872C99.8567 33.1093 99.9207 34.0053 100.134 34.56C100.39 35.072 100.603 35.3707 100.774 35.456C100.987 35.5413 101.393 35.392 101.99 35.008C102.587 34.624 103.249 33.8987 103.974 32.832L104.422 32.192C105.233 31.04 106.043 29.8027 106.854 28.48C107.707 27.1573 108.369 25.8987 108.838 24.704C109.094 24.1067 109.499 23.68 110.054 23.424C110.651 23.168 111.249 23.1467 111.846 23.36C112.443 23.616 112.849 24.0427 113.062 24.64C113.318 25.1947 113.339 25.7707 113.126 26.368C112.529 27.776 111.782 29.2267 110.886 30.72C109.99 32.1707 109.115 33.5147 108.262 34.752L107.814 35.392C106.833 36.8853 105.723 38.0373 104.486 38.848C103.291 39.6587 102.097 40.064 100.902 40.064C100.603 40.064 100.326 40.0427 100.07 40C99.814 39.9573 99.558 39.8933 99.302 39.808C98.918 39.68 98.4273 39.424 97.83 39.04C97.2753 38.6133 96.7633 37.9733 96.294 37.12C95.9527 37.504 95.5047 37.8667 94.95 38.208C94.438 38.5493 93.8833 38.8693 93.286 39.168C92.6887 39.424 92.07 39.68 91.43 39.936C90.79 40.1493 90.1927 40.3413 89.638 40.512C88.6993 40.7253 87.9313 40.832 87.334 40.832ZM87.398 26.944C87.0567 27.584 86.758 28.352 86.502 29.248C86.2887 30.1013 86.118 30.976 85.99 31.872C85.9047 32.7253 85.8833 33.536 85.926 34.304C86.0113 35.0293 86.2033 35.5627 86.502 35.904C86.758 36.288 87.398 36.352 88.422 36.096C89.7873 35.712 91.11 34.944 92.39 33.792C93.67 32.64 94.694 31.3813 95.462 30.016C95.5473 28.736 95.6753 27.4773 95.846 26.24C96.0593 24.96 96.2727 23.68 96.486 22.4C96.614 22.2293 96.614 22.0373 96.486 21.824C96.4007 21.568 96.23 21.3333 95.974 21.12C95.7607 20.9067 95.4833 20.7573 95.142 20.672C94.8433 20.5867 94.5447 20.608 94.246 20.736C93.8193 20.608 93.3073 20.6933 92.71 20.992C92.1553 21.248 91.558 21.6747 90.918 22.272C90.3207 22.8267 89.702 23.5093 89.062 24.32C88.4647 25.1307 87.91 26.0053 87.398 26.944ZM113.983 36.544C113.983 34.9653 114.367 33.856 115.135 33.216C115.903 32.576 116.82 32.256 117.887 32.256C118.996 32.256 119.935 32.576 120.703 33.216C121.514 33.856 121.919 34.9653 121.919 36.544C121.919 38.08 121.514 39.1893 120.703 39.872C119.935 40.5547 118.996 40.896 117.887 40.896C116.82 40.896 115.903 40.5547 115.135 39.872C114.367 39.1893 113.983 38.08 113.983 36.544Z" fill="#EB5D5D"/>
</svg>
